<?xml version="1.0" encoding="UTF-8"?>
<svg xmlns="http://www.w3.org/2000/svg" xmlns:xlink="http://www.w3.org/1999/xlink" width="224px" height="224px" viewBox="0 0 224 224" version="1.1">
<defs>
<radialGradient id="radial0" gradientUnits="userSpaceOnUse" cx="2000" cy="2151.8684" fx="2000" fy="2151.8684" r="1072.7709" gradientTransform="matrix(0.056,0,0,0.056,0,0)">
<stop offset="0" style="stop-color:rgb(92.54902%,61.960784%,0%);stop-opacity:1;"/>
<stop offset="1" style="stop-color:rgb(0%,0%,0%);stop-opacity:1;"/>
</radialGradient>
</defs>
<g id="surface1">
<rect x="0" y="0" width="224" height="224" style="fill:rgb(0%,0%,0%);fill-opacity:1;stroke:none;"/>
<path style=" stroke:none;fill-rule:nonzero;fill:url(#radial0);" d="M 172.074219 120.503906 C 172.074219 153.683594 145.179688 180.578125 112 180.578125 C 78.820312 180.578125 51.925781 153.683594 51.925781 120.503906 C 51.925781 87.324219 78.820312 60.429688 112 60.429688 C 145.179688 60.429688 172.074219 87.324219 172.074219 120.503906 Z M 172.074219 120.503906 "/>
<path style=" stroke:none;fill-rule:nonzero;fill:rgb(96.862745%,96.862745%,97.254902%);fill-opacity:1;" d="M 95.957031 61.398438 L 127.605469 61.351562 C 128.863281 61.351562 129.882812 60.183594 129.882812 58.738281 C 129.878906 57.300781 128.855469 56.128906 127.601562 56.128906 L 95.953125 56.179688 C 94.699219 56.179688 93.683594 57.351562 93.683594 58.789062 C 93.683594 60.234375 94.707031 61.402344 95.957031 61.398438 Z M 95.957031 61.398438 "/>
<path style=" stroke:none;fill-rule:nonzero;fill:rgb(96.862745%,96.862745%,97.254902%);fill-opacity:1;" d="M 95.949219 54.105469 L 127.597656 54.058594 C 128.855469 54.054688 129.878906 52.875 129.875 51.441406 C 129.871094 49.996094 128.851562 48.824219 127.589844 48.828125 L 124.207031 48.835938 L 120.785156 41.902344 C 120.785156 41.902344 119.140625 39.671875 118.289062 39.433594 C 117.449219 39.1875 107.707031 38.117188 104.6875 39.453125 C 104.6875 39.453125 103.214844 39.878906 102.074219 42.109375 C 101.183594 43.8125 99.320312 47.304688 98.484375 48.871094 L 95.941406 48.875 C 94.691406 48.875 93.671875 50.054688 93.675781 51.5 C 93.675781 52.929688 94.695312 54.109375 95.949219 54.105469 Z M 95.949219 54.105469 "/>
<path style=" stroke:none;fill-rule:nonzero;fill:rgb(96.862745%,96.862745%,97.254902%);fill-opacity:1;" d="M 95.96875 68.695312 L 127.617188 68.648438 C 128.878906 68.644531 129.898438 67.476562 129.894531 66.035156 C 129.890625 64.585938 128.871094 63.417969 127.613281 63.421875 L 95.964844 63.46875 C 94.710938 63.472656 93.695312 64.640625 93.695312 66.089844 C 93.695312 67.53125 94.714844 68.699219 95.96875 68.695312 Z M 95.96875 68.695312 "/>
<path style=" stroke:none;fill-rule:nonzero;fill:rgb(92.54902%,61.960784%,0%);fill-opacity:1;" d="M 53.246094 93.757812 C 55.914062 95.085938 58.582031 96.414062 61.246094 97.742188 C 62.800781 98.515625 64.96875 98.214844 65.820312 96.511719 C 65.824219 96.496094 65.832031 96.480469 65.839844 96.464844 C 66.617188 94.910156 66.308594 92.742188 64.609375 91.898438 C 61.9375 90.566406 59.273438 89.238281 56.605469 87.910156 C 55.101562 87.046875 52.84375 87.507812 52.039062 89.140625 C 51.707031 89.714844 51.570312 90.394531 51.617188 91.058594 C 51.65625 92.160156 52.171875 93.21875 53.246094 93.757812 Z M 53.246094 93.757812 "/>
<path style=" stroke:none;fill-rule:nonzero;fill:rgb(92.54902%,61.960784%,0%);fill-opacity:1;" d="M 157.894531 96.460938 C 158.757812 98.167969 160.933594 98.425781 162.480469 97.648438 C 165.144531 96.3125 167.804688 94.976562 170.46875 93.640625 C 171.539062 93.097656 172.035156 92.046875 172.066406 90.945312 C 172.109375 90.269531 171.96875 89.582031 171.628906 89.011719 C 170.816406 87.375 168.53125 86.949219 167.046875 87.824219 C 164.382812 89.164062 161.722656 90.496094 159.058594 91.832031 C 157.355469 92.691406 157.09375 94.878906 157.875 96.417969 C 157.882812 96.433594 157.890625 96.445312 157.894531 96.460938 Z M 157.894531 96.460938 "/>
<path style=" stroke:none;fill-rule:nonzero;fill:rgb(92.54902%,61.960784%,0%);fill-opacity:1;" d="M 50.691406 135.949219 C 53.609375 135.335938 56.523438 134.726562 59.4375 134.109375 C 60.257812 133.9375 60.890625 133.441406 61.304688 132.804688 C 61.519531 132.496094 61.664062 132.152344 61.746094 131.789062 C 61.902344 131.210938 61.925781 130.589844 61.800781 130.007812 C 61.789062 129.972656 61.78125 129.933594 61.777344 129.898438 C 61.414062 128.257812 60.226562 127.523438 58.953125 127.480469 C 58.5625 127.421875 58.128906 127.433594 57.671875 127.535156 C 54.765625 128.1875 51.855469 128.835938 48.953125 129.488281 C 44.726562 130.4375 46.492188 136.832031 50.691406 135.949219 Z M 50.691406 135.949219 "/>
<path style=" stroke:none;fill-rule:nonzero;fill:rgb(92.54902%,61.960784%,0%);fill-opacity:1;" d="M 161.96875 130.351562 C 161.675781 131.886719 162.339844 133.53125 164.324219 133.949219 C 167.230469 134.601562 170.140625 135.25 173.046875 135.898438 C 174.75 136.285156 176.757812 135.390625 177.15625 133.546875 C 177.164062 133.511719 177.171875 133.472656 177.175781 133.4375 C 177.542969 131.738281 176.679688 129.71875 174.828125 129.332031 C 171.914062 128.71875 168.996094 128.105469 166.082031 127.488281 C 163.832031 126.992188 162.285156 128.597656 161.96875 130.351562 Z M 161.96875 130.351562 "/>
<path style=" stroke:none;fill-rule:nonzero;fill:rgb(92.54902%,61.960784%,0%);fill-opacity:1;" d="M 69.726562 170.929688 C 69.75 170.949219 69.777344 170.96875 69.796875 170.988281 C 71.097656 172.03125 73.3125 172.484375 74.53125 170.957031 C 76.386719 168.625 78.238281 166.292969 80.09375 163.960938 C 81.230469 162.535156 81.46875 160.609375 80.0625 159.226562 C 79.988281 159.148438 79.90625 159.078125 79.816406 159.011719 C 78.5625 158.011719 76.398438 157.914062 75.3125 159.246094 C 73.445312 161.566406 71.570312 163.882812 69.695312 166.199219 C 68.644531 167.5 68.207031 169.707031 69.726562 170.929688 Z M 69.726562 170.929688 "/>
<path style=" stroke:none;fill-rule:nonzero;fill:rgb(92.54902%,61.960784%,0%);fill-opacity:1;" d="M 143.757812 163.921875 C 145.613281 166.253906 147.46875 168.585938 149.324219 170.914062 C 150.550781 172.457031 152.78125 171.914062 154.0625 170.882812 C 154.085938 170.867188 154.105469 170.847656 154.128906 170.828125 C 155.660156 169.601562 155.136719 167.375 154.097656 166.09375 C 152.21875 163.78125 150.339844 161.46875 148.460938 159.15625 C 147.847656 158.386719 146.851562 158.117188 145.890625 158.214844 C 145.070312 158.296875 144.265625 158.640625 143.726562 159.191406 C 143.171875 159.753906 142.886719 160.398438 142.8125 161.054688 C 142.703125 162.050781 143.066406 163.074219 143.757812 163.921875 Z M 143.757812 163.921875 "/>
<path style=" stroke:none;fill-rule:nonzero;fill:rgb(92.54902%,61.960784%,0%);fill-opacity:1;" d="M 111.878906 185.902344 C 111.898438 185.898438 111.914062 185.898438 111.929688 185.898438 C 113.742188 185.894531 115.300781 184.402344 115.296875 182.574219 C 115.296875 179.59375 115.289062 176.609375 115.285156 173.632812 C 115.28125 171.816406 113.785156 170.261719 111.953125 170.265625 C 111.9375 170.265625 111.921875 170.265625 111.90625 170.265625 C 110.957031 170.265625 110.210938 170.59375 109.675781 171.097656 C 109 171.636719 108.539062 172.464844 108.542969 173.59375 C 108.542969 176.574219 108.546875 179.554688 108.554688 182.527344 C 108.554688 184.347656 110.050781 185.902344 111.878906 185.902344 Z M 111.878906 185.902344 "/>
<path style=" stroke:none;fill-rule:nonzero;fill:rgb(100%,100%,100%);fill-opacity:1;" d="M 110.898438 0 L 112.941406 0 L 112.941406 41.164062 L 110.898438 41.164062 Z M 110.898438 0 "/>
<path style=" stroke:none;fill-rule:nonzero;fill:rgb(92.54902%,61.960784%,0%);fill-opacity:1;" d="M 129.675781 81.226562 L 129.664062 72.945312 C 129.664062 71.554688 128.535156 70.425781 127.136719 70.429688 L 119.070312 70.441406 L 119.0625 70.429688 L 101.535156 70.429688 L 101.519531 70.464844 L 96.464844 70.472656 C 95.070312 70.476562 93.945312 71.609375 93.945312 73 L 93.957031 81.28125 C 79.351562 88.058594 69.21875 102.863281 69.246094 120.023438 C 69.28125 143.570312 88.398438 162.628906 111.9375 162.597656 C 135.480469 162.558594 154.542969 143.441406 154.503906 119.898438 C 154.480469 102.734375 144.308594 87.960938 129.675781 81.226562 Z M 129.675781 81.226562 "/>
<path style=" stroke:none;fill-rule:nonzero;fill:rgb(0%,0%,0%);fill-opacity:1;" d="M 88.929688 100.933594 L 88.929688 99.972656 C 88.90625 99.675781 89.046875 99.492188 89.34375 99.429688 C 89.558594 99.363281 89.761719 99.335938 89.953125 99.347656 C 90.144531 99.359375 90.347656 99.386719 90.5625 99.429688 C 90.925781 99.535156 91.160156 99.65625 91.265625 99.796875 C 91.375 99.9375 91.40625 100.1875 91.363281 100.550781 C 91.191406 102 91.089844 103.441406 91.058594 104.871094 C 91.027344 106.304688 91.011719 107.746094 91.011719 109.195312 C 91.011719 109.6875 90.96875 109.976562 90.882812 110.0625 C 90.796875 110.144531 90.488281 110.09375 89.953125 109.902344 C 89.421875 109.707031 89.121094 109.3125 89.058594 108.714844 C 88.972656 108.074219 88.886719 107.433594 88.800781 106.792969 C 88.714844 106.152344 88.597656 105.523438 88.449219 104.90625 C 88.34375 104.351562 88.207031 103.800781 88.046875 103.253906 C 87.886719 102.710938 87.660156 102.195312 87.359375 101.703125 C 87.210938 101.488281 87.09375 101.324219 87.007812 101.207031 C 86.921875 101.089844 86.832031 101.03125 86.734375 101.03125 C 86.640625 101.03125 86.539062 101.078125 86.429688 101.171875 C 86.324219 101.269531 86.175781 101.425781 85.984375 101.636719 C 85.621094 102.066406 85.332031 102.589844 85.117188 103.207031 C 84.882812 103.910156 84.695312 104.621094 84.558594 105.335938 C 84.417969 106.050781 84.296875 106.78125 84.1875 107.53125 C 84.082031 108.320312 84.019531 109.109375 83.996094 109.898438 C 83.976562 110.691406 83.976562 111.492188 83.996094 112.300781 C 84.019531 112.855469 84.0625 113.402344 84.125 113.933594 C 84.1875 114.46875 84.296875 115.015625 84.445312 115.570312 C 84.53125 115.933594 84.648438 116.277344 84.796875 116.609375 C 84.945312 116.941406 85.105469 117.257812 85.277344 117.554688 C 85.363281 117.683594 85.449219 117.800781 85.535156 117.90625 C 85.621094 118.015625 85.714844 118.121094 85.824219 118.226562 C 85.972656 118.375 86.15625 118.410156 86.367188 118.324219 C 86.644531 118.21875 86.894531 118.082031 87.121094 117.921875 C 87.34375 117.761719 87.5625 117.585938 87.777344 117.394531 C 88.183594 117.03125 88.527344 116.636719 88.816406 116.210938 C 89.105469 115.78125 89.367188 115.335938 89.601562 114.863281 C 89.816406 114.5 90.09375 114.425781 90.433594 114.640625 C 90.582031 114.726562 90.660156 114.863281 90.660156 115.054688 C 90.660156 115.335938 90.628906 115.613281 90.5625 115.890625 C 90.390625 116.488281 90.171875 117.042969 89.90625 117.554688 C 89.640625 118.066406 89.324219 118.570312 88.960938 119.058594 C 88.832031 119.230469 88.691406 119.375 88.53125 119.492188 C 88.371094 119.609375 88.203125 119.722656 88.035156 119.828125 C 87.839844 120 87.574219 120.0625 87.234375 120.019531 C 85.996094 119.933594 84.957031 119.570312 84.117188 118.933594 C 83.277344 118.292969 82.582031 117.425781 82.035156 116.335938 C 81.738281 115.742188 81.523438 115.121094 81.386719 114.480469 C 81.25 113.839844 81.15625 113.199219 81.117188 112.558594 C 81.03125 111.148438 81.050781 109.75 81.179688 108.363281 C 81.304688 106.976562 81.550781 105.589844 81.910156 104.199219 C 82.015625 103.816406 82.140625 103.4375 82.289062 103.0625 C 82.4375 102.691406 82.605469 102.324219 82.796875 101.960938 C 83.238281 101.105469 83.828125 100.496094 84.5625 100.132812 C 85.296875 99.769531 86.144531 99.675781 87.105469 99.84375 C 87.785156 99.972656 88.394531 100.335938 88.929688 100.933594 Z M 88.929688 100.933594 "/>
<path style=" stroke:none;fill-rule:nonzero;fill:rgb(0%,0%,0%);fill-opacity:1;" d="M 92.195312 112.367188 C 92.195312 110.574219 92.503906 108.960938 93.125 107.53125 C 93.207031 107.273438 93.335938 107.019531 93.507812 106.761719 C 93.722656 106.398438 94.007812 106.21875 94.371094 106.21875 C 94.734375 106.21875 95.082031 106.1875 95.414062 106.121094 C 95.746094 106.058594 96.082031 106.039062 96.421875 106.058594 C 97.746094 106.144531 98.683594 106.792969 99.238281 108.011719 C 99.410156 108.375 99.523438 108.742188 99.574219 109.117188 C 99.628906 109.488281 99.675781 109.871094 99.71875 110.253906 C 99.71875 110.359375 99.730469 110.445312 99.75 110.511719 C 99.773438 110.679688 99.804688 110.78125 99.847656 110.8125 C 99.890625 110.847656 100.007812 110.832031 100.199219 110.765625 C 100.519531 110.679688 100.871094 110.53125 101.257812 110.316406 C 101.320312 110.273438 101.390625 110.238281 101.464844 110.207031 C 101.539062 110.171875 101.609375 110.144531 101.671875 110.125 C 101.929688 110.039062 102.132812 110.125 102.28125 110.382812 C 102.410156 110.59375 102.386719 110.789062 102.21875 110.957031 C 101.597656 111.554688 100.90625 111.992188 100.136719 112.269531 C 99.964844 112.335938 99.835938 112.414062 99.753906 112.511719 C 99.667969 112.609375 99.613281 112.75 99.59375 112.945312 C 99.421875 114.308594 99.027344 115.589844 98.40625 116.785156 C 98.300781 116.9375 98.199219 117.082031 98.101562 117.21875 C 98.007812 117.359375 97.90625 117.492188 97.800781 117.617188 C 97.5625 117.898438 97.292969 118.109375 96.984375 118.257812 C 96.671875 118.410156 96.351562 118.496094 96.023438 118.515625 C 95.691406 118.535156 95.359375 118.496094 95.027344 118.386719 C 94.699219 118.28125 94.394531 118.097656 94.117188 117.84375 C 93.667969 117.457031 93.324219 117.027344 93.089844 116.546875 C 92.855469 116.066406 92.664062 115.546875 92.515625 114.992188 C 92.40625 114.523438 92.324219 114.0625 92.257812 113.617188 C 92.195312 113.167969 92.171875 112.75 92.195312 112.367188 Z M 94.726562 111.40625 C 94.640625 111.449219 94.597656 111.542969 94.597656 111.695312 C 94.425781 113.230469 94.609375 114.683594 95.140625 116.050781 C 95.269531 116.347656 95.417969 116.59375 95.589844 116.785156 C 95.761719 116.976562 95.886719 117.070312 95.972656 117.058594 C 96.058594 117.046875 96.15625 116.925781 96.261719 116.6875 C 96.582031 116.113281 96.8125 115.503906 96.949219 114.863281 C 97.089844 114.222656 97.222656 113.59375 97.351562 112.972656 C 97.371094 112.890625 97.371094 112.804688 97.351562 112.71875 C 97.332031 112.632812 97.253906 112.578125 97.128906 112.558594 C 96.679688 112.453125 96.257812 112.300781 95.863281 112.109375 C 95.464844 111.917969 95.085938 111.683594 94.726562 111.40625 Z M 97.449219 111.023438 C 97.488281 110.488281 97.46875 109.976562 97.382812 109.484375 C 97.296875 108.992188 97.167969 108.511719 97 108.042969 C 96.871094 107.765625 96.710938 107.53125 96.519531 107.339844 C 96.347656 107.167969 96.21875 107.089844 96.132812 107.097656 C 96.050781 107.109375 95.929688 107.199219 95.78125 107.371094 C 95.484375 107.753906 95.308594 108.234375 95.253906 108.8125 C 95.199219 109.386719 95.289062 109.890625 95.527344 110.316406 C 95.632812 110.507812 95.761719 110.625 95.910156 110.667969 C 96.144531 110.753906 96.386719 110.835938 96.628906 110.910156 C 96.875 110.984375 97.148438 111.023438 97.449219 111.023438 Z M 97.449219 111.023438 "/>
<path style=" stroke:none;fill-rule:nonzero;fill:rgb(0%,0%,0%);fill-opacity:1;" d="M 109.9375 108.75 C 110.042969 108.472656 110.15625 108.214844 110.273438 107.980469 C 110.390625 107.746094 110.523438 107.511719 110.671875 107.273438 C 110.972656 106.847656 111.324219 106.585938 111.730469 106.492188 C 112.136719 106.394531 112.5625 106.421875 113.011719 106.570312 C 113.289062 106.65625 113.5 106.792969 113.652344 106.988281 C 113.800781 107.179688 113.90625 107.402344 113.972656 107.660156 C 114.140625 108.300781 114.226562 108.898438 114.226562 109.453125 C 114.25 110.179688 114.238281 110.898438 114.195312 111.613281 C 114.152344 112.328125 114.132812 113.039062 114.132812 113.742188 C 114.132812 114.105469 114.136719 114.46875 114.148438 114.832031 C 114.160156 115.195312 114.164062 115.558594 114.164062 115.921875 C 114.164062 116.21875 114.21875 116.550781 114.324219 116.914062 C 114.429688 116.933594 114.5 116.914062 114.53125 116.851562 C 114.566406 116.785156 114.601562 116.722656 114.644531 116.65625 C 115.179688 115.804688 115.601562 114.914062 115.910156 113.984375 C 116.21875 113.054688 116.480469 112.109375 116.695312 111.148438 C 116.738281 110.9375 116.78125 110.753906 116.824219 110.605469 C 116.886719 110.433594 117.015625 110.371094 117.207031 110.414062 C 117.355469 110.433594 117.429688 110.542969 117.429688 110.734375 C 117.410156 110.863281 117.398438 110.996094 117.398438 111.132812 C 117.398438 111.273438 117.386719 111.40625 117.367188 111.535156 C 117.175781 112.410156 116.960938 113.28125 116.726562 114.144531 C 116.492188 115.007812 116.191406 115.847656 115.828125 116.660156 C 115.574219 117.300781 115.15625 117.8125 114.582031 118.195312 C 114.257812 118.410156 113.894531 118.472656 113.484375 118.386719 C 112.402344 118.023438 111.765625 117.308594 111.570312 116.242188 C 111.464844 115.707031 111.414062 115.179688 111.425781 114.65625 C 111.4375 114.132812 111.441406 113.59375 111.441406 113.039062 C 111.464844 112.355469 111.507812 111.683594 111.570312 111.023438 C 111.636719 110.359375 111.6875 109.6875 111.730469 109.003906 C 111.753906 108.898438 111.761719 108.792969 111.761719 108.683594 C 111.761719 108.578125 111.75 108.449219 111.730469 108.300781 C 111.625 108.40625 111.542969 108.523438 111.492188 108.652344 C 111.4375 108.78125 111.390625 108.898438 111.347656 109.003906 C 111.046875 109.710938 110.8125 110.417969 110.640625 111.132812 C 110.472656 111.851562 110.3125 112.582031 110.160156 113.328125 C 110.140625 113.433594 110.125 113.53125 110.113281 113.617188 C 110.101562 113.703125 110.078125 113.796875 110.035156 113.90625 C 109.992188 114.054688 109.957031 114.207031 109.9375 114.367188 C 109.917969 114.527344 109.820312 114.640625 109.648438 114.703125 C 109.457031 114.769531 109.257812 114.828125 109.054688 114.882812 C 108.851562 114.933594 108.644531 114.929688 108.433594 114.863281 C 108.367188 114.84375 108.308594 114.828125 108.253906 114.816406 C 108.203125 114.804688 108.144531 114.789062 108.078125 114.769531 C 107.910156 114.703125 107.777344 114.652344 107.679688 114.609375 C 107.582031 114.566406 107.515625 114.511719 107.472656 114.449219 C 107.429688 114.382812 107.394531 114.300781 107.375 114.191406 C 107.355469 114.085938 107.34375 113.945312 107.34375 113.777344 C 107.300781 112.6875 107.277344 111.597656 107.277344 110.507812 C 107.277344 109.421875 107.234375 108.332031 107.152344 107.242188 C 107.128906 107.199219 107.125 107.144531 107.132812 107.082031 C 107.144531 107.019531 107.128906 106.953125 107.085938 106.890625 C 106.980469 106.890625 106.914062 106.929688 106.894531 107.003906 C 106.875 107.078125 106.839844 107.136719 106.796875 107.179688 C 106.691406 107.414062 106.601562 107.660156 106.527344 107.914062 C 106.449219 108.171875 106.371094 108.417969 106.285156 108.652344 C 106.027344 109.503906 105.832031 110.359375 105.691406 111.214844 C 105.554688 112.066406 105.433594 112.933594 105.324219 113.808594 C 105.238281 114.425781 105.160156 115.03125 105.085938 115.617188 C 105.007812 116.203125 104.941406 116.808594 104.875 117.425781 C 104.832031 117.832031 104.726562 118.121094 104.554688 118.292969 C 104.386719 118.460938 104.074219 118.570312 103.628906 118.613281 C 102.945312 118.71875 102.484375 118.417969 102.25 117.714844 C 102.144531 117.351562 102.050781 116.984375 101.976562 116.609375 C 101.902344 116.238281 101.835938 115.855469 101.769531 115.472656 C 101.726562 115.003906 101.683594 114.539062 101.640625 114.078125 C 101.597656 113.621094 101.554688 113.167969 101.511719 112.71875 C 101.40625 111.757812 101.316406 110.820312 101.242188 109.902344 C 101.167969 108.984375 101.117188 108.042969 101.097656 107.082031 C 101.097656 106.679688 101.152344 106.421875 101.257812 106.316406 C 101.363281 106.207031 101.621094 106.144531 102.027344 106.121094 C 102.261719 106.101562 102.484375 106.101562 102.699219 106.121094 C 102.910156 106.144531 103.125 106.207031 103.339844 106.316406 C 103.59375 106.421875 103.761719 106.527344 103.835938 106.636719 C 103.910156 106.742188 103.957031 106.945312 103.980469 107.242188 C 104.0625 108.078125 104.078125 108.910156 104.027344 109.742188 C 103.972656 110.574219 103.957031 111.417969 103.980469 112.273438 L 103.980469 113.875 C 104.085938 113.808594 104.144531 113.734375 104.15625 113.648438 C 104.164062 113.5625 104.179688 113.488281 104.203125 113.425781 C 104.308594 112.613281 104.410156 111.8125 104.507812 111.023438 C 104.605469 110.234375 104.734375 109.433594 104.90625 108.621094 C 105.015625 108.214844 105.121094 107.8125 105.226562 107.40625 C 105.335938 107 105.472656 106.605469 105.644531 106.21875 C 105.664062 106.15625 105.695312 106.082031 105.738281 105.996094 C 105.890625 105.675781 106.058594 105.390625 106.253906 105.148438 C 106.445312 104.902344 106.742188 104.777344 107.148438 104.777344 C 107.617188 104.800781 108.03125 104.894531 108.382812 105.066406 C 108.734375 105.238281 109.015625 105.535156 109.230469 105.964844 C 109.402344 106.304688 109.519531 106.65625 109.582031 107.019531 C 109.644531 107.382812 109.710938 107.746094 109.773438 108.109375 C 109.796875 108.214844 109.804688 108.316406 109.804688 108.414062 C 109.808594 108.507812 109.851562 108.621094 109.9375 108.75 Z M 109.9375 108.75 "/>
<path style=" stroke:none;fill-rule:nonzero;fill:rgb(0%,0%,0%);fill-opacity:1;" d="M 123.480469 110.765625 C 123.503906 110.871094 123.519531 110.988281 123.53125 111.117188 C 123.542969 111.246094 123.523438 111.363281 123.480469 111.46875 C 123.160156 113.347656 122.640625 115.101562 121.914062 116.722656 C 121.828125 116.9375 121.710938 117.148438 121.5625 117.363281 C 121.242188 117.917969 120.855469 118.265625 120.40625 118.402344 C 119.960938 118.542969 119.394531 118.464844 118.710938 118.164062 C 118.328125 117.992188 118.011719 117.761719 117.765625 117.476562 C 117.519531 117.1875 117.3125 116.851562 117.140625 116.464844 C 116.949219 115.996094 116.804688 115.515625 116.710938 115.027344 C 116.613281 114.535156 116.511719 114.042969 116.40625 113.550781 C 116.234375 112.546875 116.148438 111.554688 116.148438 110.574219 C 116.148438 109.59375 116.179688 108.601562 116.246094 107.597656 L 116.246094 107.050781 C 116.265625 106.816406 116.308594 106.644531 116.371094 106.539062 C 116.4375 106.433594 116.585938 106.359375 116.820312 106.316406 C 117.65625 106.082031 118.445312 106.175781 119.191406 106.605469 C 119.511719 106.773438 119.640625 107.074219 119.574219 107.5 C 119.46875 108.460938 119.394531 109.417969 119.351562 110.367188 C 119.308594 111.316406 119.296875 112.273438 119.320312 113.234375 C 119.339844 113.765625 119.355469 114.292969 119.367188 114.816406 C 119.378906 115.339844 119.4375 115.871094 119.542969 116.402344 C 119.585938 116.554688 119.625 116.691406 119.65625 116.820312 C 119.6875 116.949219 119.769531 117.085938 119.898438 117.234375 C 120.089844 116.957031 120.265625 116.695312 120.425781 116.449219 C 120.585938 116.207031 120.738281 115.945312 120.890625 115.667969 C 121.230469 114.984375 121.507812 114.285156 121.722656 113.570312 C 121.933594 112.851562 122.128906 112.121094 122.296875 111.375 C 122.339844 111.246094 122.382812 111.125 122.425781 111.007812 C 122.46875 110.890625 122.511719 110.765625 122.554688 110.636719 C 122.660156 110.402344 122.84375 110.308594 123.097656 110.351562 C 123.3125 110.371094 123.4375 110.507812 123.480469 110.765625 Z M 116.660156 104.488281 C 116.617188 104.039062 116.589844 103.59375 116.582031 103.144531 C 116.570312 102.695312 116.542969 102.238281 116.5 101.765625 C 116.480469 101.574219 116.464844 101.378906 116.453125 101.175781 C 116.441406 100.972656 116.425781 100.773438 116.40625 100.582031 C 116.40625 100.367188 116.4375 100.21875 116.5 100.132812 C 116.566406 100.046875 116.691406 99.972656 116.886719 99.910156 C 117.527344 99.738281 118.167969 99.800781 118.804688 100.101562 C 119.082031 100.230469 119.210938 100.453125 119.191406 100.773438 C 119.191406 100.964844 119.179688 101.117188 119.160156 101.222656 L 119.191406 101.222656 C 119.148438 101.714844 119.105469 102.199219 119.0625 102.679688 C 119.019531 103.160156 118.976562 103.644531 118.933594 104.136719 C 118.914062 104.328125 118.886719 104.519531 118.855469 104.710938 C 118.820312 104.90625 118.699219 105.042969 118.484375 105.128906 C 117.996094 105.363281 117.480469 105.375 116.949219 105.160156 C 116.796875 105.097656 116.714844 105 116.691406 104.871094 C 116.671875 104.746094 116.660156 104.617188 116.660156 104.488281 Z M 116.660156 104.488281 "/>
<path style=" stroke:none;fill-rule:nonzero;fill:rgb(0%,0%,0%);fill-opacity:1;" d="M 131.746094 116.5625 C 131.851562 116.519531 131.914062 116.464844 131.9375 116.402344 C 131.957031 116.335938 131.988281 116.273438 132.03125 116.210938 C 132.394531 115.441406 132.738281 114.667969 133.058594 113.886719 C 133.378906 113.109375 133.644531 112.300781 133.859375 111.46875 C 133.902344 111.363281 133.9375 111.25 133.96875 111.132812 C 134.003906 111.015625 134.039062 110.894531 134.082031 110.765625 C 134.144531 110.53125 134.296875 110.433594 134.53125 110.476562 C 134.746094 110.5 134.851562 110.648438 134.851562 110.925781 C 134.871094 111.246094 134.851562 111.566406 134.789062 111.886719 C 134.722656 112.207031 134.648438 112.515625 134.5625 112.816406 C 134.390625 113.433594 134.207031 114.042969 134.003906 114.640625 C 133.800781 115.238281 133.558594 115.824219 133.28125 116.402344 C 133.175781 116.617188 133.0625 116.816406 132.945312 117.011719 C 132.828125 117.203125 132.714844 117.40625 132.609375 117.617188 C 132.460938 117.875 132.246094 118.0625 131.96875 118.179688 C 131.691406 118.296875 131.402344 118.355469 131.105469 118.355469 C 130.804688 118.355469 130.511719 118.296875 130.222656 118.179688 C 129.9375 118.0625 129.714844 117.898438 129.566406 117.683594 C 129.3125 117.34375 129.097656 116.988281 128.925781 116.625 C 128.753906 116.265625 128.648438 115.867188 128.605469 115.441406 C 128.480469 114.609375 128.394531 113.777344 128.351562 112.945312 C 128.308594 112.109375 128.328125 111.277344 128.414062 110.445312 C 128.457031 109.953125 128.480469 109.46875 128.480469 108.988281 C 128.480469 108.507812 128.488281 108.023438 128.511719 107.53125 C 128.402344 107.550781 128.339844 107.59375 128.320312 107.660156 C 128.296875 107.722656 128.265625 107.789062 128.222656 107.851562 C 127.839844 108.707031 127.496094 109.574219 127.199219 110.460938 C 126.898438 111.347656 126.632812 112.238281 126.398438 113.136719 C 126.289062 113.5 126.199219 113.871094 126.125 114.257812 C 126.050781 114.640625 125.960938 115.015625 125.851562 115.378906 C 125.746094 115.761719 125.660156 116.152344 125.597656 116.546875 C 125.53125 116.941406 125.511719 117.34375 125.53125 117.746094 C 125.53125 117.960938 125.503906 118.097656 125.453125 118.164062 C 125.398438 118.226562 125.277344 118.28125 125.082031 118.324219 C 124.804688 118.367188 124.535156 118.382812 124.265625 118.371094 C 124 118.359375 123.726562 118.3125 123.449219 118.226562 C 123.152344 118.140625 122.933594 118.015625 122.792969 117.84375 C 122.65625 117.671875 122.566406 117.4375 122.523438 117.136719 C 122.457031 116.648438 122.429688 116.160156 122.441406 115.679688 C 122.453125 115.199219 122.4375 114.714844 122.394531 114.222656 C 122.289062 113.070312 122.25 111.933594 122.28125 110.8125 C 122.3125 109.695312 122.351562 108.554688 122.394531 107.402344 C 122.414062 106.933594 122.496094 106.628906 122.632812 106.492188 C 122.773438 106.351562 123.078125 106.261719 123.546875 106.21875 C 123.996094 106.175781 124.433594 106.238281 124.859375 106.410156 C 125.136719 106.519531 125.308594 106.632812 125.371094 106.761719 C 125.4375 106.890625 125.425781 107.105469 125.339844 107.402344 C 125.085938 108.492188 124.941406 109.585938 124.910156 110.6875 C 124.875 111.785156 124.851562 112.910156 124.828125 114.066406 C 124.933594 113.957031 124.992188 113.863281 125.003906 113.777344 C 125.015625 113.691406 125.042969 113.605469 125.085938 113.519531 C 125.339844 112.433594 125.625 111.359375 125.933594 110.300781 C 126.242188 109.246094 126.601562 108.203125 127.007812 107.179688 C 127.15625 106.710938 127.402344 106.273438 127.742188 105.867188 C 128.019531 105.566406 128.324219 105.386719 128.65625 105.320312 C 128.988281 105.257812 129.332031 105.269531 129.695312 105.355469 C 130.378906 105.523438 130.816406 105.941406 131.007812 106.601562 C 131.09375 106.902344 131.148438 107.199219 131.167969 107.5 C 131.191406 107.796875 131.222656 108.097656 131.265625 108.394531 C 131.332031 109.230469 131.355469 110.0625 131.347656 110.894531 C 131.335938 111.726562 131.339844 112.546875 131.363281 113.359375 C 131.363281 113.851562 131.363281 114.324219 131.363281 114.785156 C 131.363281 115.242188 131.4375 115.707031 131.585938 116.179688 C 131.609375 116.265625 131.625 116.339844 131.632812 116.402344 C 131.640625 116.464844 131.679688 116.519531 131.746094 116.5625 Z M 131.746094 116.5625 "/>
<path style=" stroke:none;fill-rule:nonzero;fill:rgb(0%,0%,0%);fill-opacity:1;" d="M 140.167969 111.566406 C 140.144531 111.609375 140.125 111.640625 140.101562 111.664062 C 140.082031 111.683594 140.058594 111.714844 140.039062 111.757812 C 139.675781 112.71875 139.285156 113.652344 138.871094 114.5625 C 138.453125 115.46875 138.03125 116.382812 137.605469 117.296875 C 137.476562 117.578125 137.332031 117.832031 137.171875 118.066406 C 137.011719 118.300781 136.75 118.417969 136.386719 118.417969 C 136.003906 118.398438 135.644531 118.324219 135.316406 118.195312 C 134.984375 118.066406 134.703125 117.820312 134.464844 117.457031 C 134.253906 117.136719 134.09375 116.796875 133.984375 116.433594 C 133.878906 116.070312 133.792969 115.699219 133.730469 115.3125 C 133.621094 114.695312 133.585938 114.078125 133.617188 113.472656 C 133.648438 112.863281 133.699219 112.25 133.761719 111.628906 C 133.824219 110.988281 133.925781 110.367188 134.066406 109.757812 C 134.203125 109.148438 134.390625 108.535156 134.625 107.914062 C 134.734375 107.640625 134.867188 107.371094 135.027344 107.113281 C 135.1875 106.859375 135.351562 106.601562 135.523438 106.347656 C 135.800781 105.960938 136.171875 105.691406 136.644531 105.53125 C 137.113281 105.371094 137.582031 105.3125 138.050781 105.355469 C 138.523438 105.398438 138.953125 105.535156 139.347656 105.769531 C 139.742188 106.003906 140.027344 106.3125 140.199219 106.699219 C 140.21875 106.804688 140.273438 106.890625 140.359375 106.953125 C 140.378906 106.953125 140.390625 106.949219 140.390625 106.9375 C 140.390625 106.929688 140.402344 106.921875 140.421875 106.921875 L 140.453125 106.921875 C 140.539062 106.601562 140.652344 106.390625 140.789062 106.28125 C 140.929688 106.175781 141.15625 106.121094 141.476562 106.121094 C 141.5625 106.144531 141.648438 106.160156 141.734375 106.167969 C 141.820312 106.179688 141.914062 106.195312 142.023438 106.21875 C 142.40625 106.304688 142.664062 106.425781 142.792969 106.585938 C 142.917969 106.746094 142.960938 107.03125 142.917969 107.433594 C 142.8125 108.183594 142.757812 108.925781 142.757812 109.660156 C 142.757812 110.398438 142.769531 111.140625 142.792969 111.886719 C 142.832031 113.230469 142.824219 114.554688 142.757812 115.855469 C 142.695312 117.160156 142.585938 118.472656 142.4375 119.796875 C 142.332031 120.648438 142.183594 121.484375 141.992188 122.292969 C 141.796875 123.105469 141.476562 123.886719 141.027344 124.632812 C 140.625 125.316406 140.121094 125.859375 139.523438 126.265625 C 138.925781 126.671875 138.222656 126.882812 137.410156 126.90625 C 136.152344 126.90625 135.371094 126.285156 135.074219 125.046875 C 134.902344 124.449219 134.871094 123.878906 134.976562 123.335938 C 135.082031 122.789062 135.265625 122.25 135.519531 121.71875 C 136.351562 119.925781 137.675781 118.589844 139.492188 117.714844 C 139.597656 117.671875 139.6875 117.625 139.765625 117.570312 C 139.839844 117.519531 139.886719 117.417969 139.90625 117.265625 C 139.949219 116.347656 140.023438 115.441406 140.132812 114.542969 C 140.238281 113.648438 140.28125 112.742188 140.261719 111.824219 L 140.261719 111.597656 C 140.238281 111.597656 140.222656 111.59375 140.210938 111.582031 C 140.203125 111.570312 140.1875 111.566406 140.167969 111.566406 Z M 136.417969 116.5625 C 136.546875 116.371094 136.621094 116.261719 136.644531 116.242188 C 137.199219 115.152344 137.71875 114.058594 138.199219 112.957031 C 138.679688 111.859375 139.183594 110.765625 139.71875 109.675781 C 139.804688 109.527344 139.824219 109.367188 139.78125 109.195312 C 139.632812 108.832031 139.492188 108.460938 139.367188 108.074219 C 139.238281 107.691406 139.054688 107.328125 138.820312 106.984375 C 138.652344 106.75 138.519531 106.632812 138.421875 106.632812 C 138.324219 106.632812 138.214844 106.78125 138.085938 107.082031 C 137.9375 107.359375 137.800781 107.644531 137.683594 107.929688 C 137.566406 108.21875 137.457031 108.511719 137.347656 108.8125 C 137.09375 109.621094 136.890625 110.433594 136.742188 111.246094 C 136.589844 112.054688 136.484375 112.878906 136.417969 113.710938 C 136.375 114.160156 136.34375 114.613281 136.324219 115.070312 C 136.300781 115.53125 136.335938 116.027344 136.417969 116.5625 Z M 139.652344 118.835938 C 139.566406 118.835938 139.503906 118.847656 139.460938 118.867188 C 138.777344 119.402344 138.214844 120.003906 137.765625 120.675781 C 137.316406 121.351562 136.996094 122.101562 136.804688 122.933594 C 136.695312 123.339844 136.660156 123.746094 136.691406 124.152344 C 136.722656 124.558594 136.855469 124.941406 137.09375 125.304688 C 137.199219 125.476562 137.277344 125.570312 137.332031 125.59375 C 137.386719 125.613281 137.496094 125.550781 137.667969 125.402344 C 137.902344 125.167969 138.105469 124.910156 138.277344 124.632812 C 138.449219 124.355469 138.585938 124.066406 138.691406 123.769531 C 138.925781 123.210938 139.097656 122.640625 139.207031 122.054688 C 139.3125 121.46875 139.417969 120.875 139.527344 120.277344 C 139.566406 120.042969 139.609375 119.800781 139.652344 119.558594 C 139.695312 119.3125 139.695312 119.070312 139.652344 118.835938 Z M 139.652344 118.835938 "/>
<path style=" stroke:none;fill-rule:nonzero;fill:rgb(0%,0%,0%);fill-opacity:1;" d="M 103.371094 128.777344 C 103.328125 129.546875 103.265625 130.304688 103.179688 131.054688 C 103.09375 131.800781 102.933594 132.535156 102.699219 133.261719 C 102.636719 133.519531 102.558594 133.769531 102.476562 134.015625 C 102.390625 134.261719 102.28125 134.5 102.15625 134.734375 C 101.941406 135.097656 101.648438 135.300781 101.273438 135.34375 C 100.898438 135.386719 100.574219 135.238281 100.296875 134.894531 C 100.210938 134.832031 100.199219 134.746094 100.265625 134.640625 C 100.585938 134.191406 100.804688 133.707031 100.921875 133.183594 C 101.039062 132.660156 101.140625 132.132812 101.226562 131.597656 C 101.355469 130.703125 101.417969 129.820312 101.417969 128.957031 C 101.417969 128.089844 101.332031 127.210938 101.160156 126.3125 C 101.054688 125.824219 100.941406 125.535156 100.824219 125.449219 C 100.707031 125.363281 100.402344 125.46875 99.914062 125.769531 C 99.550781 125.984375 99.21875 126.226562 98.917969 126.503906 C 98.621094 126.785156 98.34375 127.09375 98.085938 127.433594 C 97.511719 128.183594 96.992188 128.949219 96.535156 129.738281 C 96.074219 130.53125 95.695312 131.371094 95.398438 132.269531 C 95.121094 133.167969 94.96875 134.054688 94.949219 134.929688 C 94.925781 135.335938 95.066406 135.707031 95.363281 136.050781 C 95.601562 136.328125 95.886719 136.539062 96.230469 136.691406 C 96.828125 136.96875 97.433594 137.203125 98.054688 137.394531 C 98.675781 137.585938 99.304688 137.746094 99.945312 137.875 C 101.035156 138.109375 101.972656 138.632812 102.761719 139.445312 C 103.382812 140.0625 103.53125 140.777344 103.210938 141.589844 C 102.914062 142.378906 102.5 143.058594 101.976562 143.625 C 101.453125 144.1875 100.777344 144.589844 99.945312 144.824219 C 99.28125 144.996094 98.578125 145.015625 97.832031 144.886719 C 97.339844 144.78125 96.886719 144.617188 96.46875 144.390625 C 96.054688 144.167969 95.652344 143.90625 95.269531 143.609375 C 95.183594 143.5625 95.105469 143.5 95.027344 143.414062 C 94.953125 143.328125 94.949219 143.234375 95.011719 143.128906 C 95.078125 143.019531 95.164062 142.984375 95.269531 143.015625 C 95.375 143.046875 95.472656 143.085938 95.558594 143.128906 C 96.625 143.53125 97.585938 143.449219 98.441406 142.871094 C 98.761719 142.65625 99.074219 142.4375 99.386719 142.214844 C 99.695312 141.992188 99.976562 141.730469 100.234375 141.429688 C 100.402344 141.195312 100.574219 140.929688 100.746094 140.628906 C 100.894531 140.394531 100.84375 140.214844 100.585938 140.085938 C 100.351562 139.980469 100.117188 139.882812 99.882812 139.796875 C 99.644531 139.710938 99.410156 139.636719 99.175781 139.574219 C 98.75 139.464844 98.328125 139.371094 97.910156 139.285156 C 97.496094 139.199219 97.074219 139.101562 96.644531 138.996094 C 96.390625 138.933594 96.140625 138.851562 95.894531 138.753906 C 95.648438 138.660156 95.40625 138.558594 95.171875 138.453125 C 94.363281 138.089844 93.753906 137.59375 93.347656 136.960938 C 92.941406 136.332031 92.71875 135.582031 92.675781 134.703125 C 92.652344 134.148438 92.6875 133.59375 92.769531 133.039062 C 92.855469 132.484375 92.984375 131.941406 93.15625 131.40625 C 93.519531 130.273438 93.976562 129.210938 94.53125 128.21875 C 95.085938 127.226562 95.800781 126.324219 96.679688 125.515625 C 97.105469 125.085938 97.570312 124.734375 98.070312 124.457031 C 98.574219 124.179688 99.121094 123.988281 99.722656 123.882812 C 100.105469 123.816406 100.488281 123.832031 100.875 123.929688 C 101.257812 124.023438 101.609375 124.183594 101.929688 124.410156 C 102.25 124.632812 102.523438 124.90625 102.746094 125.226562 C 102.972656 125.546875 103.125 125.898438 103.210938 126.28125 C 103.296875 126.710938 103.359375 127.125 103.402344 127.53125 C 103.445312 127.9375 103.4375 128.351562 103.371094 128.777344 Z M 103.371094 128.777344 "/>
<path style=" stroke:none;fill-rule:nonzero;fill:rgb(0%,0%,0%);fill-opacity:1;" d="M 103.789062 136.847656 C 103.789062 135.054688 104.097656 133.445312 104.714844 132.015625 C 104.800781 131.757812 104.929688 131.5 105.101562 131.246094 C 105.3125 130.882812 105.601562 130.699219 105.964844 130.699219 C 106.328125 130.699219 106.675781 130.667969 107.007812 130.605469 C 107.335938 130.539062 107.671875 130.519531 108.015625 130.539062 C 109.335938 130.625 110.277344 131.277344 110.832031 132.492188 C 111.003906 132.855469 111.113281 133.226562 111.167969 133.597656 C 111.222656 133.972656 111.269531 134.351562 111.3125 134.734375 C 111.3125 134.84375 111.324219 134.925781 111.34375 134.992188 C 111.367188 135.164062 111.398438 135.261719 111.441406 135.296875 C 111.484375 135.328125 111.601562 135.3125 111.792969 135.246094 C 112.113281 135.164062 112.464844 135.011719 112.847656 134.796875 C 112.914062 134.757812 112.984375 134.71875 113.058594 134.6875 C 113.132812 134.65625 113.203125 134.628906 113.265625 134.605469 C 113.523438 134.523438 113.726562 134.605469 113.875 134.863281 C 114.003906 135.078125 113.980469 135.269531 113.8125 135.4375 C 113.191406 136.035156 112.496094 136.476562 111.730469 136.753906 C 111.558594 136.816406 111.429688 136.894531 111.34375 136.992188 C 111.257812 137.089844 111.207031 137.234375 111.183594 137.425781 C 111.015625 138.789062 110.617188 140.070312 110 141.265625 C 109.894531 141.417969 109.792969 141.5625 109.695312 141.699219 C 109.601562 141.839844 109.5 141.972656 109.390625 142.101562 C 109.15625 142.378906 108.882812 142.589844 108.574219 142.742188 C 108.265625 142.890625 107.945312 142.976562 107.613281 142.996094 C 107.28125 143.019531 106.953125 142.976562 106.621094 142.867188 C 106.289062 142.761719 105.984375 142.578125 105.707031 142.324219 C 105.261719 141.941406 104.917969 141.507812 104.683594 141.027344 C 104.449219 140.546875 104.257812 140.027344 104.109375 139.472656 C 104 139.003906 103.914062 138.546875 103.851562 138.097656 C 103.789062 137.648438 103.765625 137.234375 103.789062 136.847656 Z M 106.316406 135.886719 C 106.230469 135.929688 106.1875 136.027344 106.1875 136.175781 C 106.019531 137.714844 106.199219 139.167969 106.734375 140.53125 C 106.863281 140.832031 107.011719 141.078125 107.183594 141.269531 C 107.351562 141.460938 107.480469 141.550781 107.566406 141.539062 C 107.652344 141.53125 107.746094 141.40625 107.855469 141.171875 C 108.175781 140.597656 108.402344 139.988281 108.542969 139.347656 C 108.683594 138.707031 108.816406 138.078125 108.945312 137.457031 C 108.964844 137.371094 108.964844 137.285156 108.945312 137.199219 C 108.921875 137.117188 108.847656 137.0625 108.71875 137.039062 C 108.269531 136.933594 107.847656 136.785156 107.453125 136.59375 C 107.058594 136.402344 106.679688 136.167969 106.316406 135.886719 Z M 109.039062 135.503906 C 109.082031 134.96875 109.0625 134.457031 108.976562 133.96875 C 108.890625 133.476562 108.761719 132.996094 108.59375 132.527344 C 108.464844 132.25 108.304688 132.015625 108.113281 131.820312 C 107.941406 131.652344 107.8125 131.570312 107.726562 131.582031 C 107.640625 131.59375 107.523438 131.683594 107.375 131.855469 C 107.074219 132.238281 106.898438 132.71875 106.847656 133.292969 C 106.792969 133.871094 106.882812 134.371094 107.117188 134.800781 C 107.226562 134.992188 107.351562 135.109375 107.503906 135.152344 C 107.738281 135.238281 107.976562 135.316406 108.222656 135.390625 C 108.46875 135.46875 108.742188 135.503906 109.039062 135.503906 Z M 109.039062 135.503906 "/>
<path style=" stroke:none;fill-rule:nonzero;fill:rgb(0%,0%,0%);fill-opacity:1;" d="M 112.722656 136.847656 C 112.722656 135.054688 113.03125 133.445312 113.652344 132.015625 C 113.734375 131.757812 113.863281 131.5 114.035156 131.246094 C 114.25 130.882812 114.535156 130.699219 114.898438 130.699219 C 115.261719 130.699219 115.609375 130.667969 115.941406 130.605469 C 116.273438 130.539062 116.609375 130.519531 116.949219 130.539062 C 118.273438 130.625 119.210938 131.277344 119.765625 132.492188 C 119.9375 132.855469 120.050781 133.226562 120.101562 133.597656 C 120.15625 133.972656 120.203125 134.351562 120.246094 134.734375 C 120.246094 134.84375 120.257812 134.925781 120.277344 134.992188 C 120.300781 135.164062 120.332031 135.261719 120.375 135.296875 C 120.417969 135.328125 120.535156 135.3125 120.726562 135.246094 C 121.046875 135.164062 121.398438 135.011719 121.785156 134.796875 C 121.847656 134.757812 121.917969 134.71875 121.992188 134.6875 C 122.066406 134.65625 122.136719 134.628906 122.199219 134.605469 C 122.457031 134.523438 122.660156 134.605469 122.808594 134.863281 C 122.9375 135.078125 122.917969 135.269531 122.746094 135.4375 C 122.125 136.035156 121.433594 136.476562 120.664062 136.753906 C 120.492188 136.816406 120.367188 136.894531 120.28125 136.992188 C 120.195312 137.089844 120.140625 137.234375 120.121094 137.425781 C 119.949219 138.789062 119.554688 140.070312 118.933594 141.265625 C 118.828125 141.417969 118.726562 141.5625 118.632812 141.699219 C 118.535156 141.839844 118.433594 141.972656 118.328125 142.101562 C 118.089844 142.378906 117.820312 142.589844 117.511719 142.742188 C 117.199219 142.890625 116.878906 142.976562 116.550781 142.996094 C 116.21875 143.019531 115.886719 142.976562 115.554688 142.867188 C 115.226562 142.761719 114.921875 142.578125 114.644531 142.324219 C 114.195312 141.941406 113.855469 141.507812 113.617188 141.027344 C 113.382812 140.546875 113.191406 140.027344 113.042969 139.472656 C 112.9375 139.003906 112.851562 138.546875 112.785156 138.097656 C 112.722656 137.648438 112.699219 137.234375 112.722656 136.847656 Z M 115.25 135.886719 C 115.167969 135.929688 115.125 136.027344 115.125 136.175781 C 114.953125 137.714844 115.132812 139.167969 115.667969 140.53125 C 115.796875 140.832031 115.945312 141.078125 116.117188 141.269531 C 116.289062 141.460938 116.414062 141.550781 116.5 141.539062 C 116.585938 141.53125 116.679688 141.40625 116.789062 141.171875 C 117.109375 140.597656 117.339844 139.988281 117.476562 139.347656 C 117.617188 138.707031 117.75 138.078125 117.878906 137.457031 C 117.898438 137.371094 117.898438 137.285156 117.878906 137.199219 C 117.855469 137.117188 117.78125 137.0625 117.652344 137.039062 C 117.207031 136.933594 116.785156 136.785156 116.390625 136.59375 C 115.992188 136.402344 115.613281 136.167969 115.25 135.886719 Z M 117.972656 135.503906 C 118.015625 134.96875 117.996094 134.457031 117.910156 133.96875 C 117.824219 133.476562 117.695312 132.996094 117.527344 132.527344 C 117.398438 132.25 117.238281 132.015625 117.046875 131.820312 C 116.875 131.652344 116.746094 131.570312 116.660156 131.582031 C 116.574219 131.59375 116.457031 131.683594 116.308594 131.855469 C 116.011719 132.238281 115.832031 132.71875 115.78125 133.292969 C 115.726562 133.871094 115.816406 134.371094 116.050781 134.800781 C 116.160156 134.992188 116.289062 135.109375 116.4375 135.152344 C 116.671875 135.238281 116.910156 135.316406 117.15625 135.390625 C 117.402344 135.46875 117.675781 135.503906 117.972656 135.503906 Z M 117.972656 135.503906 "/>
<path style=" stroke:none;fill-rule:nonzero;fill:rgb(0%,0%,0%);fill-opacity:1;" d="M 131.105469 141.042969 C 131.210938 141 131.273438 140.949219 131.296875 140.882812 C 131.316406 140.820312 131.347656 140.757812 131.390625 140.691406 C 131.753906 139.925781 132.097656 139.148438 132.417969 138.371094 C 132.738281 137.589844 133.003906 136.785156 133.21875 135.953125 C 133.261719 135.847656 133.296875 135.734375 133.328125 135.617188 C 133.359375 135.5 133.398438 135.375 133.441406 135.246094 C 133.503906 135.011719 133.65625 134.917969 133.890625 134.960938 C 134.101562 134.980469 134.210938 135.128906 134.210938 135.40625 C 134.230469 135.726562 134.210938 136.046875 134.144531 136.367188 C 134.082031 136.6875 134.007812 137 133.921875 137.296875 C 133.75 137.917969 133.566406 138.527344 133.363281 139.121094 C 133.160156 139.722656 132.917969 140.308594 132.640625 140.882812 C 132.535156 141.097656 132.421875 141.300781 132.304688 141.492188 C 132.1875 141.683594 132.074219 141.886719 131.96875 142.101562 C 131.820312 142.359375 131.605469 142.542969 131.328125 142.660156 C 131.050781 142.777344 130.761719 142.839844 130.464844 142.839844 C 130.164062 142.839844 129.871094 142.777344 129.582031 142.660156 C 129.292969 142.542969 129.074219 142.378906 128.925781 142.164062 C 128.671875 141.824219 128.457031 141.472656 128.285156 141.109375 C 128.113281 140.746094 128.007812 140.351562 127.964844 139.925781 C 127.835938 139.089844 127.75 138.257812 127.707031 137.425781 C 127.664062 136.59375 127.6875 135.761719 127.773438 134.925781 C 127.816406 134.4375 127.835938 133.949219 127.835938 133.46875 C 127.835938 132.988281 127.847656 132.503906 127.867188 132.011719 C 127.761719 132.035156 127.695312 132.078125 127.675781 132.140625 C 127.65625 132.207031 127.621094 132.269531 127.578125 132.332031 C 127.195312 133.1875 126.851562 134.058594 126.554688 134.945312 C 126.257812 135.832031 125.988281 136.722656 125.753906 137.617188 C 125.648438 137.980469 125.554688 138.355469 125.480469 138.738281 C 125.40625 139.121094 125.316406 139.496094 125.210938 139.859375 C 125.101562 140.242188 125.019531 140.632812 124.953125 141.027344 C 124.890625 141.421875 124.867188 141.824219 124.890625 142.230469 C 124.890625 142.441406 124.863281 142.582031 124.808594 142.644531 C 124.757812 142.710938 124.632812 142.761719 124.441406 142.804688 C 124.164062 142.847656 123.890625 142.863281 123.625 142.855469 C 123.359375 142.84375 123.085938 142.796875 122.808594 142.710938 C 122.507812 142.625 122.289062 142.496094 122.152344 142.324219 C 122.011719 142.15625 121.921875 141.921875 121.878906 141.621094 C 121.816406 141.128906 121.789062 140.644531 121.800781 140.164062 C 121.8125 139.683594 121.792969 139.199219 121.75 138.707031 C 121.644531 137.554688 121.609375 136.417969 121.640625 135.296875 C 121.671875 134.175781 121.707031 133.039062 121.75 131.886719 C 121.773438 131.417969 121.851562 131.113281 121.992188 130.972656 C 122.132812 130.835938 122.433594 130.742188 122.90625 130.699219 C 123.351562 130.65625 123.789062 130.722656 124.21875 130.894531 C 124.496094 131 124.667969 131.117188 124.730469 131.246094 C 124.792969 131.375 124.785156 131.585938 124.699219 131.886719 C 124.441406 132.972656 124.296875 134.070312 124.265625 135.167969 C 124.234375 136.269531 124.207031 137.394531 124.1875 138.546875 C 124.292969 138.441406 124.351562 138.34375 124.363281 138.257812 C 124.371094 138.171875 124.398438 138.085938 124.441406 138.003906 C 124.699219 136.914062 124.980469 135.839844 125.289062 134.785156 C 125.597656 133.726562 125.957031 132.6875 126.363281 131.660156 C 126.511719 131.191406 126.757812 130.753906 127.101562 130.347656 C 127.378906 130.050781 127.679688 129.867188 128.011719 129.804688 C 128.34375 129.742188 128.691406 129.75 129.054688 129.835938 C 129.738281 130.007812 130.175781 130.421875 130.367188 131.085938 C 130.453125 131.382812 130.503906 131.683594 130.527344 131.980469 C 130.546875 132.28125 130.582031 132.578125 130.625 132.878906 C 130.6875 133.710938 130.714844 134.542969 130.703125 135.375 C 130.691406 136.207031 130.699219 137.03125 130.71875 137.839844 C 130.71875 138.332031 130.71875 138.808594 130.71875 139.265625 C 130.71875 139.726562 130.792969 140.191406 130.945312 140.660156 C 130.964844 140.746094 130.980469 140.820312 130.992188 140.882812 C 131.003906 140.949219 131.039062 141 131.105469 141.042969 Z M 131.105469 141.042969 "/>
</g>
</svg>
