<?xml version='1.0' encoding='utf-8'?>
<svg xmlns="http://www.w3.org/2000/svg" width="1000" height="1000" viewBox="0 0 264.58333 264.58334" version="1.1" id="svg984"> <defs id="defs978"/> <metadata id="metadata981"> </metadata> <g id="layer1" transform="translate(0,-32.41665)"> <path id="path1647" d="m 125.95079,116.9784 a 57.787828,23.02077 0 0 0 -57.787825,23.02077 v 95.24996 a 57.787828,31.303378 0 0 0 57.787825,31.30339 57.787828,31.303378 0 0 0 57.78783,-31.30339 V 139.99917 A 57.787828,23.02077 0 0 0 125.95079,116.9784 Z" style="opacity:1;fill:#c4c8b7;fill-opacity:1;stroke:none;stroke-width:2.64583325;stroke-linecap:round;stroke-linejoin:round;stroke-miterlimit:4;stroke-dasharray:none;stroke-dashoffset:0;stroke-opacity:1"/> <path id="path1649" d="m 189.3349,153.39752 a 30.133615,41.152667 8.856537 0 0 -5.48366,0.69655 30.133615,41.152667 8.856537 0 0 -4.1649,1.39979 7.2995151,8.3195542 0 0 0 -0.0695,0.0485 7.2995151,8.3195542 0 0 0 -0.58072,0.50339 7.2995151,8.3195542 0 0 0 -0.53417,0.56668 7.2995151,8.3195542 0 0 0 -0.48139,0.6247 7.2995151,8.3195542 0 0 0 -0.4244,0.6766 7.2995151,8.3195542 0 0 0 -0.36307,0.72129 7.2995151,8.3195542 0 0 0 -0.29796,0.75937 7.2995151,8.3195542 0 0 0 -0.23002,0.78886 7.2995151,8.3195542 0 0 0 -0.16006,0.81172 7.2995151,8.3195542 0 0 0 -0.0879,0.82549 7.2995151,8.3195542 0 0 0 -0.0179,0.58807 7.2995151,8.3195542 0 0 0 0.0367,0.83074 7.2995151,8.3195542 0 0 0 0.10886,0.82216 7.2995151,8.3195542 0 0 0 0.18062,0.80553 7.2995151,8.3195542 0 0 0 0.24999,0.78126 7.2995151,8.3195542 0 0 0 0.31745,0.7489 7.2995151,8.3195542 0 0 0 0.38161,0.70892 7.2995151,8.3195542 0 0 0 0.44147,0.6623 7.2995151,8.3195542 0 0 0 0.49711,0.60855 7.2995151,8.3195542 0 0 0 0.54839,0.54859 7.2995151,8.3195542 0 0 0 0.59357,0.48388 7.2995151,8.3195542 0 0 0 0.63253,0.41393 7.2995151,8.3195542 0 0 0 0.66628,0.33973 7.2995151,8.3195542 0 0 0 0.6924,0.26215 7.2995151,8.3195542 0 0 0 0.71189,0.18219 7.2995151,8.3195542 0 0 0 0.72425,0.0999 7.2995151,8.3195542 0 0 0 0.51658,0.0201 7.2995151,8.3195542 0 0 0 0.0993,-0.004 17.905993,24.453734 8.8565357 0 1 2.58145,-0.5838 17.905993,24.453734 8.8565357 0 1 1.73078,-0.13413 17.905993,24.453734 8.8565357 0 1 16.2704,24.31874 17.905993,24.453734 8.8565357 0 1 -19.74053,24.31874 17.905993,24.453734 8.8565357 0 1 -0.94142,-0.0637 v 0.0304 a 7.2995151,8.3195893 0 0 0 -0.72852,0.0414 7.2995151,8.3195893 0 0 0 -0.72188,0.12473 7.2995151,8.3195893 0 0 0 -0.70666,0.20544 7.2995151,8.3195893 0 0 0 -0.68529,0.28501 7.2995151,8.3195893 0 0 0 -0.65723,0.36207 7.2995151,8.3195893 0 0 0 -0.62209,0.43441 7.2995151,8.3195893 0 0 0 -0.58071,0.50339 7.2995151,8.3195893 0 0 0 -0.53418,0.56665 7.2995151,8.3195893 0 0 0 -0.48139,0.62473 7.2995151,8.3195893 0 0 0 -0.42439,0.67657 7.2995151,8.3195893 0 0 0 -0.36308,0.72132 7.2995151,8.3195893 0 0 0 -0.29796,0.75935 7.2995151,8.3195893 0 0 0 -0.23,0.78887 7.2995151,8.3195893 0 0 0 -0.16028,0.8117 7.2995151,8.3195893 0 0 0 -0.0879,0.82549 7.2995151,8.3195893 0 0 0 -0.0179,0.58809 7.2995151,8.3195893 0 0 0 0.0367,0.83073 7.2995151,8.3195893 0 0 0 0.10886,0.82218 7.2995151,8.3195893 0 0 0 0.18062,0.80551 7.2995151,8.3195893 0 0 0 0.24999,0.78125 7.2995151,8.3195893 0 0 0 0.31745,0.74891 7.2995151,8.3195893 0 0 0 0.38161,0.70893 7.2995151,8.3195893 0 0 0 0.44147,0.66229 7.2995151,8.3195893 0 0 0 0.49711,0.60857 7.2995151,8.3195893 0 0 0 0.54839,0.54856 7.2995151,8.3195893 0 0 0 0.59357,0.48388 7.2995151,8.3195893 0 0 0 0.633,0.41395 7.2995151,8.3195893 0 0 0 0.66581,0.33972 7.2995151,8.3195893 0 0 0 0.6924,0.26217 7.2995151,8.3195893 0 0 0 0.71189,0.18218 7.2995151,8.3195893 0 0 0 0.72425,0.0999 7.2995151,8.3195893 0 0 0 0.3778,0.0156 30.133615,41.152667 8.856537 0 0 1.08163,-0.0729 30.133615,41.152667 8.856537 0 0 32.03422,-40.84587 30.133615,41.152667 8.856537 0 0 -27.38077,-40.92583 z" style="opacity:1;fill:#c4c8b7;fill-opacity:1;stroke:none;stroke-width:2.64583325;stroke-linecap:round;stroke-linejoin:round;stroke-miterlimit:4;stroke-dasharray:none;stroke-dashoffset:0;stroke-opacity:1"/> <ellipse style="opacity:1;fill:#a6ac93;fill-opacity:1;stroke:none;stroke-width:2.64583325;stroke-linecap:round;stroke-linejoin:round;stroke-miterlimit:4;stroke-dasharray:none;stroke-dashoffset:0;stroke-opacity:1" id="ellipse1653" cx="125.95077" cy="139.99916" rx="55.13681" ry="20.828314"/> <path id="path1655" d="m 183.73862,170.75683 a 17.905993,24.453734 8.8565357 0 1 0.0993,-0.0342 7.2995151,8.3195542 0 0 1 -0.0993,0.004 z" style="opacity:1;fill:#6f918a;fill-opacity:1;stroke:none;stroke-width:2.64583325;stroke-linecap:round;stroke-linejoin:round;stroke-miterlimit:4;stroke-dasharray:none;stroke-dashoffset:0;stroke-opacity:1"/> <path id="path1657" d="m 125.95077,149.33218 a 55.13681,20.828314 0 0 0 -37.963647,5.7376 55.13681,20.828314 0 0 0 37.963647,5.75756 55.13681,20.828314 0 0 0 37.96367,-5.73757 55.13681,20.828314 0 0 0 -37.96367,-5.75759 z" style="opacity:1;fill:#a05a2c;fill-opacity:1;stroke:none;stroke-width:2.64583325;stroke-linecap:round;stroke-linejoin:round;stroke-miterlimit:4;stroke-dasharray:none;stroke-dashoffset:0;stroke-opacity:1"/> <path style="color:#000000;font-style:normal;font-variant:normal;font-weight:normal;font-stretch:normal;font-size:medium;line-height:normal;font-family:sans-serif;font-variant-ligatures:normal;font-variant-position:normal;font-variant-caps:normal;font-variant-numeric:normal;font-variant-alternates:normal;font-feature-settings:normal;text-indent:0;text-align:start;text-decoration:none;text-decoration-line:none;text-decoration-style:solid;text-decoration-color:#000000;letter-spacing:normal;word-spacing:normal;text-transform:none;writing-mode:lr-tb;direction:ltr;text-orientation:mixed;dominant-baseline:auto;baseline-shift:baseline;text-anchor:start;white-space:normal;shape-padding:0;clip-rule:nonzero;display:inline;overflow:visible;visibility:visible;opacity:0.5;isolation:auto;mix-blend-mode:normal;color-interpolation:sRGB;color-interpolation-filters:linearRGB;solid-color:#000000;solid-opacity:1;vector-effect:none;fill:#c87137;fill-opacity:1;fill-rule:evenodd;stroke:none;stroke-width:1.32291675;stroke-linecap:round;stroke-linejoin:round;stroke-miterlimit:4;stroke-dasharray:none;stroke-dashoffset:0;stroke-opacity:1;color-rendering:auto;image-rendering:auto;shape-rendering:auto;text-rendering:auto;enable-background:accumulate" d="m 103.76941,140.19289 a 1.4791381,1.4784166 89.99962 0 0 0.085,-0.0595 c 12.69618,-9.27692 21.1143,-24.31856 20.57923,-40.331009 -0.31584,-9.451663 -4.16174,-18.818515 -10.48455,-25.71019 -6.32281,-6.891634 -15.204397,-11.302519 -25.388716,-10.578626 -6.060683,0.430785 -12.059826,3.095883 -16.422695,7.328517 -4.362891,4.232634 -7.079247,10.130289 -6.271594,16.776224 0.442387,3.640206 2.201564,7.230205 4.893666,9.811051 2.692103,2.580843 6.437484,4.134943 10.531925,3.343903 2.017389,-0.38979 3.977283,-1.483641 5.381231,-3.108381 1.403971,-1.624762 2.216899,-3.939281 1.49864,-6.317956 -0.312532,-1.035128 -0.944281,-1.978963 -1.885991,-2.678779 -0.941711,-0.699795 -2.419696,-1.091237 -3.745226,-0.443483 -0.528875,0.258458 -0.884975,0.577473 -1.209825,1.130379 -0.162514,0.276475 -0.313985,0.628552 -0.326638,1.086878 -0.01341,0.458325 0.174809,1.009979 0.504889,1.385439 a 1.4791381,1.4784166 89.99962 0 0 2.597567,-0.88292 c 0.115571,0.0045 0.20767,-0.05767 0.4182,0.09881 0.345103,0.256469 0.712626,0.805329 0.819188,1.158277 0.401189,1.32866 0.0089,2.46693 -0.906838,3.527139 -0.916137,1.060209 -2.391283,1.88664 -3.70586,2.140627 -3.079744,0.594999 -5.773523,-0.509405 -7.927763,-2.574609 -2.154218,-2.065182 -3.648186,-5.11021 -4.003124,-8.030861 -0.687858,-5.66012 1.565299,-10.582936 5.394352,-14.297693 3.829054,-3.714756 9.245112,-6.124035 14.574147,-6.502825 9.222355,-0.655511 17.183005,3.28567 23.003755,9.630139 5.82078,6.344424 9.41809,15.097276 9.70914,23.807366 0.49825,14.910623 -7.40497,29.099993 -19.37319,37.844993 a 1.4791381,1.4784166 89.99962 0 0 1.66122,2.44724 z" id="path1659"/> <path style="color:#000000;font-style:normal;font-variant:normal;font-weight:normal;font-stretch:normal;font-size:medium;line-height:normal;font-family:sans-serif;font-variant-ligatures:normal;font-variant-position:normal;font-variant-caps:normal;font-variant-numeric:normal;font-variant-alternates:normal;font-feature-settings:normal;text-indent:0;text-align:start;text-decoration:none;text-decoration-line:none;text-decoration-style:solid;text-decoration-color:#000000;letter-spacing:normal;word-spacing:normal;text-transform:none;writing-mode:lr-tb;direction:ltr;text-orientation:mixed;dominant-baseline:auto;baseline-shift:baseline;text-anchor:start;white-space:normal;shape-padding:0;clip-rule:nonzero;display:inline;overflow:visible;visibility:visible;opacity:0.5;isolation:auto;mix-blend-mode:normal;color-interpolation:sRGB;color-interpolation-filters:linearRGB;solid-color:#000000;solid-opacity:1;vector-effect:none;fill:#a05a2c;fill-opacity:1;fill-rule:evenodd;stroke:none;stroke-width:1.32291675;stroke-linecap:round;stroke-linejoin:round;stroke-miterlimit:4;stroke-dasharray:none;stroke-dashoffset:0;stroke-opacity:1;color-rendering:auto;image-rendering:auto;shape-rendering:auto;text-rendering:auto;enable-background:accumulate" d="m 134.62925,140.19289 a 1.4791381,1.4784166 89.99962 0 0 0.0849,-0.0595 c 12.69618,-9.27692 21.1143,-24.31856 20.57924,-40.331009 -0.31584,-9.451663 -4.16175,-18.818515 -10.48456,-25.71019 -6.32281,-6.891674 -15.2044,-11.302559 -25.38871,-10.578666 -6.06069,0.430785 -12.05983,3.095883 -16.4227,7.328517 -4.362889,4.232634 -7.079245,10.130289 -6.271592,16.776224 0.442387,3.640206 2.201564,7.230205 4.893662,9.811051 2.69211,2.580843 6.43749,4.134943 10.53193,3.343903 2.01739,-0.38979 3.97728,-1.483641 5.38123,-3.108381 1.40397,-1.624762 2.2169,-3.939281 1.49864,-6.317956 -0.31253,-1.035128 -0.94428,-1.978963 -1.88599,-2.678779 -0.94171,-0.699795 -2.4197,-1.091237 -3.74523,-0.443483 -0.52887,0.258458 -0.88497,0.577473 -1.20982,1.130379 -0.16252,0.276475 -0.31399,0.628552 -0.32664,1.086878 -0.0134,0.458325 0.17481,1.009979 0.50489,1.385439 a 1.4791381,1.4784166 89.99962 0 0 2.59756,-0.88292 c 0.11558,0.0045 0.20767,-0.05767 0.4182,0.09881 0.34511,0.256469 0.71263,0.805329 0.81919,1.158277 0.40119,1.32866 0.009,2.46693 -0.90684,3.527139 -0.91613,1.060209 -2.39128,1.88664 -3.70586,2.140627 -3.07974,0.594999 -5.77352,-0.509405 -7.92776,-2.574609 -2.15422,-2.065182 -3.64818,-5.11021 -4.003122,-8.030861 -0.687857,-5.66012 1.565302,-10.582936 5.394352,-14.297693 3.82905,-3.714756 9.24511,-6.124035 14.57415,-6.502825 9.22235,-0.655511 17.183,3.28567 23.00375,9.630139 5.82078,6.344424 9.41809,15.097276 9.70914,23.807366 0.49825,14.910623 -7.40497,29.099993 -19.37318,37.844993 a 1.4791381,1.4784166 89.99962 0 0 1.66122,2.44724 z" id="path1661"/> <path style="color:#000000;font-style:normal;font-variant:normal;font-weight:normal;font-stretch:normal;font-size:medium;line-height:normal;font-family:sans-serif;font-variant-ligatures:normal;font-variant-position:normal;font-variant-caps:normal;font-variant-numeric:normal;font-variant-alternates:normal;font-feature-settings:normal;text-indent:0;text-align:start;text-decoration:none;text-decoration-line:none;text-decoration-style:solid;text-decoration-color:#000000;letter-spacing:normal;word-spacing:normal;text-transform:none;writing-mode:lr-tb;direction:ltr;text-orientation:mixed;dominant-baseline:auto;baseline-shift:baseline;text-anchor:start;white-space:normal;shape-padding:0;clip-rule:nonzero;display:inline;overflow:visible;visibility:visible;opacity:0.5;isolation:auto;mix-blend-mode:normal;color-interpolation:sRGB;color-interpolation-filters:linearRGB;solid-color:#000000;solid-opacity:1;vector-effect:none;fill:#c87137;fill-opacity:1;fill-rule:evenodd;stroke:none;stroke-width:1.32291675;stroke-linecap:round;stroke-linejoin:round;stroke-miterlimit:4;stroke-dasharray:none;stroke-dashoffset:0;stroke-opacity:1;color-rendering:auto;image-rendering:auto;shape-rendering:auto;text-rendering:auto;enable-background:accumulate" d="m 165.4891,140.19289 a 1.4791381,1.4784166 89.99962 0 0 0.0849,-0.0595 c 12.69618,-9.27692 21.1143,-24.31856 20.57923,-40.331009 -0.31584,-9.451663 -4.16175,-18.818515 -10.48455,-25.71019 -6.32281,-6.891674 -15.2044,-11.302559 -25.38872,-10.578666 -6.06068,0.430785 -12.05983,3.095883 -16.42269,7.328517 -4.3629,4.232634 -7.07925,10.130289 -6.2716,16.776224 0.44239,3.640206 2.20157,7.230205 4.89367,9.811051 2.6921,2.580843 6.43748,4.134943 10.53192,3.343903 2.01739,-0.38979 3.97729,-1.483641 5.38123,-3.108381 1.40397,-1.624762 2.2169,-3.939281 1.49864,-6.317956 -0.31253,-1.035128 -0.94428,-1.978963 -1.88599,-2.678779 -0.94171,-0.699795 -2.41969,-1.091237 -3.74522,-0.443483 -0.52888,0.258458 -0.88498,0.577473 -1.20983,1.130379 -0.16251,0.276475 -0.31398,0.628552 -0.32664,1.086878 -0.0134,0.458325 0.17481,1.009979 0.50489,1.385439 a 1.4791381,1.4784166 89.99962 0 0 2.59757,-0.88292 c 0.11557,0.0045 0.20767,-0.05767 0.4182,0.09881 0.3451,0.256469 0.71263,0.805329 0.81919,1.158277 0.40119,1.32866 0.009,2.46693 -0.90684,3.527139 -0.91614,1.060209 -2.39128,1.88664 -3.70586,2.140627 -3.07974,0.594999 -5.77352,-0.509405 -7.92776,-2.574609 -2.15422,-2.065182 -3.64819,-5.11021 -4.00313,-8.030861 -0.68786,-5.66012 1.5653,-10.582936 5.39435,-14.297693 3.82906,-3.714756 9.24512,-6.124035 14.57415,-6.502825 9.22236,-0.655511 17.183,3.28567 23.00376,9.630139 5.82078,6.344424 9.41809,15.097276 9.70914,23.807366 0.49825,14.910623 -7.40497,29.099993 -19.37319,37.844993 a 1.4791381,1.4784166 89.99962 0 0 1.66122,2.44724 z" id="path1663"/> <path style="opacity:1;fill:#6f918a;fill-opacity:1;stroke:none;stroke-width:2.64583325;stroke-linecap:round;stroke-linejoin:round;stroke-miterlimit:4;stroke-dasharray:none;stroke-dashoffset:0;stroke-opacity:1" d="m 140.98588,209.71665 a 5.7844521,7.8996708 8.8565357 0 1 0.0321,-0.011 2.3580761,2.6875953 0 0 1 -0.0321,0.001 z" id="path1742"/> </g> </svg>